<mxfile host="app.diagrams.net" modified="2024-02-24T14:49:24.591Z" agent="Mozilla/5.0 (Windows NT 10.0; Win64; x64) AppleWebKit/537.36 (KHTML, like Gecko) Chrome/121.0.0.0 Safari/537.36" etag="eQi_nx8YFPU_clT0TRS6" version="23.1.5" type="device">
  <diagram name="Страница — 1" id="5j81bQ7dr5ES3xZsHQuJ">
    <mxGraphModel dx="1167" dy="687" grid="1" gridSize="10" guides="1" tooltips="1" connect="1" arrows="1" fold="1" page="1" pageScale="1" pageWidth="827" pageHeight="1169" math="0" shadow="0">
      <root>
        <mxCell id="0" />
        <mxCell id="1" parent="0" />
        <mxCell id="XGRbFG3aKQw-DH6veSFH-15" value="Метод" style="swimlane;whiteSpace=wrap;html=1;" vertex="1" parent="1">
          <mxGeometry x="319" y="80" width="190" height="80" as="geometry" />
        </mxCell>
        <mxCell id="XGRbFG3aKQw-DH6veSFH-23" value="+Класс уровня&lt;br&gt;+Тип&lt;br&gt;+Оригинальность применения" style="text;whiteSpace=wrap;html=1;" vertex="1" parent="XGRbFG3aKQw-DH6veSFH-15">
          <mxGeometry y="20" width="190" height="60" as="geometry" />
        </mxCell>
        <mxCell id="XGRbFG3aKQw-DH6veSFH-16" value="Человек" style="swimlane;whiteSpace=wrap;html=1;" vertex="1" parent="1">
          <mxGeometry x="50" y="80" width="190" height="80" as="geometry" />
        </mxCell>
        <mxCell id="XGRbFG3aKQw-DH6veSFH-30" value="+Имя&lt;br&gt;+Состояние&lt;br&gt;+Направление взгляда&lt;div&gt;&lt;br/&gt;&lt;/div&gt;" style="text;whiteSpace=wrap;html=1;" vertex="1" parent="XGRbFG3aKQw-DH6veSFH-16">
          <mxGeometry y="20" width="190" height="60" as="geometry" />
        </mxCell>
        <mxCell id="XGRbFG3aKQw-DH6veSFH-31" value="Объект" style="swimlane;whiteSpace=wrap;html=1;" vertex="1" parent="1">
          <mxGeometry x="49" y="230" width="190" height="70" as="geometry" />
        </mxCell>
        <mxCell id="XGRbFG3aKQw-DH6veSFH-32" value="+Имя&lt;div&gt;+Форма&lt;/div&gt;" style="text;whiteSpace=wrap;html=1;" vertex="1" parent="XGRbFG3aKQw-DH6veSFH-31">
          <mxGeometry y="20" width="110" height="40" as="geometry" />
        </mxCell>
        <mxCell id="XGRbFG3aKQw-DH6veSFH-33" value="Вывод" style="swimlane;whiteSpace=wrap;html=1;" vertex="1" parent="1">
          <mxGeometry x="319" y="230" width="190" height="80" as="geometry" />
        </mxCell>
        <mxCell id="XGRbFG3aKQw-DH6veSFH-34" value="+Время дотижения&lt;br&gt;+Точность результата&lt;br&gt;+Текст" style="text;whiteSpace=wrap;html=1;" vertex="1" parent="XGRbFG3aKQw-DH6veSFH-33">
          <mxGeometry y="20" width="190" height="50" as="geometry" />
        </mxCell>
        <mxCell id="XGRbFG3aKQw-DH6veSFH-35" value="Еда" style="swimlane;whiteSpace=wrap;html=1;" vertex="1" parent="1">
          <mxGeometry x="319" y="380" width="190" height="120" as="geometry" />
        </mxCell>
        <mxCell id="XGRbFG3aKQw-DH6veSFH-36" value="+Название&amp;nbsp;&lt;br&gt;+Цвет&lt;br&gt;+Форма&lt;br&gt;+Плотность&lt;br&gt;+Размер&lt;br&gt;+Приятность вкуса" style="text;whiteSpace=wrap;html=1;" vertex="1" parent="XGRbFG3aKQw-DH6veSFH-35">
          <mxGeometry x="-1" y="20" width="190" height="110" as="geometry" />
        </mxCell>
        <mxCell id="XGRbFG3aKQw-DH6veSFH-37" value="Проверка" style="swimlane;whiteSpace=wrap;html=1;" vertex="1" parent="1">
          <mxGeometry x="590" y="235" width="190" height="70" as="geometry" />
        </mxCell>
        <mxCell id="XGRbFG3aKQw-DH6veSFH-38" value="+Состояние&amp;nbsp;&lt;br style=&quot;border-color: var(--border-color);&quot;&gt;+Время начала" style="text;whiteSpace=wrap;html=1;" vertex="1" parent="XGRbFG3aKQw-DH6veSFH-37">
          <mxGeometry y="20" width="190" height="40" as="geometry" />
        </mxCell>
        <mxCell id="XGRbFG3aKQw-DH6veSFH-41" value="Болезнь" style="swimlane;whiteSpace=wrap;html=1;" vertex="1" parent="1">
          <mxGeometry x="50" y="400" width="190" height="65" as="geometry" />
        </mxCell>
        <mxCell id="XGRbFG3aKQw-DH6veSFH-42" value="+Название&lt;br&gt;+Вероятность" style="text;whiteSpace=wrap;html=1;" vertex="1" parent="XGRbFG3aKQw-DH6veSFH-41">
          <mxGeometry x="-1" y="20" width="190" height="40" as="geometry" />
        </mxCell>
        <mxCell id="XGRbFG3aKQw-DH6veSFH-48" value="Вопрос" style="swimlane;whiteSpace=wrap;html=1;" vertex="1" parent="1">
          <mxGeometry x="590" y="415" width="190" height="50" as="geometry" />
        </mxCell>
        <mxCell id="XGRbFG3aKQw-DH6veSFH-49" value="+Текст" style="text;whiteSpace=wrap;html=1;" vertex="1" parent="XGRbFG3aKQw-DH6veSFH-48">
          <mxGeometry x="-1" y="20" width="190" height="40" as="geometry" />
        </mxCell>
        <mxCell id="XGRbFG3aKQw-DH6veSFH-53" value="" style="endArrow=ERmandOne;html=1;rounded=0;exitX=1;exitY=0.5;exitDx=0;exitDy=0;entryX=0;entryY=0.5;entryDx=0;entryDy=0;startArrow=ERoneToMany;startFill=0;endFill=0;" edge="1" parent="1" source="XGRbFG3aKQw-DH6veSFH-30" target="XGRbFG3aKQw-DH6veSFH-23">
          <mxGeometry width="50" height="50" relative="1" as="geometry">
            <mxPoint x="270" y="190" as="sourcePoint" />
            <mxPoint x="420" y="240" as="targetPoint" />
          </mxGeometry>
        </mxCell>
        <mxCell id="XGRbFG3aKQw-DH6veSFH-54" value="" style="endArrow=ERmandOne;html=1;rounded=0;entryX=0.5;entryY=1;entryDx=0;entryDy=0;exitX=0.5;exitY=0;exitDx=0;exitDy=0;startArrow=ERzeroToOne;startFill=0;endFill=0;" edge="1" parent="1" source="XGRbFG3aKQw-DH6veSFH-31" target="XGRbFG3aKQw-DH6veSFH-30">
          <mxGeometry width="50" height="50" relative="1" as="geometry">
            <mxPoint x="210" y="260" as="sourcePoint" />
            <mxPoint x="260" y="210" as="targetPoint" />
          </mxGeometry>
        </mxCell>
        <mxCell id="XGRbFG3aKQw-DH6veSFH-55" value="" style="endArrow=ERmandOne;html=1;rounded=0;entryX=0.5;entryY=1;entryDx=0;entryDy=0;exitX=0.5;exitY=0;exitDx=0;exitDy=0;startArrow=ERzeroToMany;startFill=0;endFill=0;" edge="1" parent="1" source="XGRbFG3aKQw-DH6veSFH-33" target="XGRbFG3aKQw-DH6veSFH-23">
          <mxGeometry width="50" height="50" relative="1" as="geometry">
            <mxPoint x="530" y="280" as="sourcePoint" />
            <mxPoint x="580" y="230" as="targetPoint" />
          </mxGeometry>
        </mxCell>
        <mxCell id="XGRbFG3aKQw-DH6veSFH-56" value="" style="endArrow=ERzeroToMany;html=1;rounded=0;exitX=1;exitY=0.5;exitDx=0;exitDy=0;entryX=0;entryY=0.5;entryDx=0;entryDy=0;startArrow=ERmandOne;startFill=0;endFill=0;" edge="1" parent="1" source="XGRbFG3aKQw-DH6veSFH-34" target="XGRbFG3aKQw-DH6veSFH-38">
          <mxGeometry width="50" height="50" relative="1" as="geometry">
            <mxPoint x="480" y="400" as="sourcePoint" />
            <mxPoint x="530" y="350" as="targetPoint" />
          </mxGeometry>
        </mxCell>
        <mxCell id="XGRbFG3aKQw-DH6veSFH-58" value="" style="endArrow=ERzeroToMany;html=1;rounded=0;entryX=-0.004;entryY=0.12;entryDx=0;entryDy=0;exitX=1;exitY=0.5;exitDx=0;exitDy=0;entryPerimeter=0;startArrow=ERmandOne;startFill=0;endFill=0;" edge="1" parent="1" source="XGRbFG3aKQw-DH6veSFH-35" target="XGRbFG3aKQw-DH6veSFH-49">
          <mxGeometry width="50" height="50" relative="1" as="geometry">
            <mxPoint x="500" y="470" as="sourcePoint" />
            <mxPoint x="550" y="420" as="targetPoint" />
          </mxGeometry>
        </mxCell>
        <mxCell id="XGRbFG3aKQw-DH6veSFH-59" value="" style="endArrow=ERmandOne;html=1;rounded=0;exitX=1;exitY=0.5;exitDx=0;exitDy=0;entryX=-0.005;entryY=0.366;entryDx=0;entryDy=0;entryPerimeter=0;endFill=0;startArrow=ERzeroToMany;startFill=0;" edge="1" parent="1" source="XGRbFG3aKQw-DH6veSFH-42" target="XGRbFG3aKQw-DH6veSFH-36">
          <mxGeometry width="50" height="50" relative="1" as="geometry">
            <mxPoint x="320" y="530" as="sourcePoint" />
            <mxPoint x="370" y="480" as="targetPoint" />
          </mxGeometry>
        </mxCell>
        <mxCell id="XGRbFG3aKQw-DH6veSFH-60" value="" style="endArrow=ERmandOne;html=1;rounded=0;entryX=0.5;entryY=1;entryDx=0;entryDy=0;exitX=0.5;exitY=0;exitDx=0;exitDy=0;startArrow=ERmandOne;startFill=0;endFill=0;" edge="1" parent="1" source="XGRbFG3aKQw-DH6veSFH-35" target="XGRbFG3aKQw-DH6veSFH-33">
          <mxGeometry width="50" height="50" relative="1" as="geometry">
            <mxPoint x="340" y="360" as="sourcePoint" />
            <mxPoint x="390" y="310" as="targetPoint" />
          </mxGeometry>
        </mxCell>
      </root>
    </mxGraphModel>
  </diagram>
</mxfile>
